<?xml version="1.0" encoding="utf-8"?>
<!-- Generator: Adobe Illustrator 16.0.4, SVG Export Plug-In . SVG Version: 6.00 Build 0)  -->
<!DOCTYPE svg PUBLIC "-//W3C//DTD SVG 1.1//EN" "http://www.w3.org/Graphics/SVG/1.1/DTD/svg11.dtd">
<svg version="1.1" id="Layer_1" xmlns="http://www.w3.org/2000/svg" xmlns:xlink="http://www.w3.org/1999/xlink" x="0px" y="0px"
	 width="1000px" height="566px" viewBox="0 0 1000 566" enable-background="new 0 0 1000 566" xml:space="preserve">
<g>
	<ellipse opacity="0.1" fill="#231F20" cx="500" cy="549.193" rx="109.274" ry="13.58"/>
	<g>
		<circle fill="#FFF080" cx="500" cy="26.584" r="23.357"/>
		<path opacity="0.05" fill="#231F20" d="M513.817,7.754c1.733,3.397,2.718,7.239,2.718,11.314
			c0,13.766-11.159,24.925-24.925,24.925c-3.101,0-6.067-0.571-8.807-1.606c4.27,4.643,10.392,7.554,17.196,7.554
			c12.9,0,23.357-10.457,23.357-23.356C523.357,18.855,519.601,12.007,513.817,7.754z"/>
		<rect x="483.942" y="49.94" fill="#E6E7E8" width="32.116" height="12.709"/>
		<polygon fill="#E6E7E8" points="549.195,69.788 450.805,69.788 452.752,62.65 547.248,62.65 		"/>
		<polygon fill="#D1D3D4" points="547.248,76.926 452.752,76.926 450.805,69.788 549.195,69.788 		"/>
		<polygon fill="#25648C" points="547.248,76.926 452.752,76.926 461.512,100.284 538.489,100.284 		"/>
		<polygon opacity="0.1" fill="#FFFFFF" points="479.639,100.284 466.928,100.284 463.475,76.926 478.776,76.926 		"/>
		<polyline opacity="0.1" fill="#231F20" points="521.226,76.926 520.361,100.284 533.072,100.284 536.525,76.926 		"/>
		<line opacity="0.1" fill="#231F20" x1="536.525" y1="76.926" x2="521.226" y2="76.926"/>
		<polygon opacity="0.2" fill="#FFFFFF" points="452.752,76.926 463.475,76.926 466.928,100.284 461.512,100.284 		"/>
		<polygon opacity="0.2" fill="#231F20" points="547.248,76.926 536.525,76.926 533.072,100.284 538.489,100.284 		"/>
		
			<line opacity="0.2" fill="none" stroke="#D1D3D4" stroke-width="0.9733" stroke-miterlimit="10" x1="506.787" y1="76.926" x2="506.787" y2="100.284"/>
		
			<line opacity="0.2" fill="none" stroke="#D1D3D4" stroke-width="0.9733" stroke-miterlimit="10" x1="493.213" y1="100.284" x2="493.213" y2="76.926"/>
		
			<line opacity="0.2" fill="none" stroke="#D1D3D4" stroke-width="0.9733" stroke-miterlimit="10" x1="493.213" y1="76.926" x2="493.213" y2="100.284"/>
		
			<line opacity="0.2" fill="none" stroke="#D1D3D4" stroke-width="0.9733" stroke-miterlimit="10" x1="479.639" y1="100.284" x2="478.776" y2="76.926"/>
		
			<line opacity="0.2" fill="none" stroke="#D1D3D4" stroke-width="0.9733" stroke-miterlimit="10" x1="506.787" y1="76.926" x2="506.787" y2="100.284"/>
		
			<line opacity="0.2" fill="none" stroke="#D1D3D4" stroke-width="0.9733" stroke-miterlimit="10" x1="466.928" y1="100.284" x2="463.475" y2="76.926"/>
		
			<line opacity="0.2" fill="none" stroke="#D1D3D4" stroke-width="0.9733" stroke-miterlimit="10" x1="520.361" y1="100.284" x2="521.226" y2="76.926"/>
		
			<line opacity="0.2" fill="none" stroke="#D1D3D4" stroke-width="0.9733" stroke-miterlimit="10" x1="533.072" y1="100.284" x2="536.525" y2="76.926"/>
		
			<line opacity="0.2" fill="none" stroke="#D1D3D4" stroke-width="0.9733" stroke-miterlimit="10" x1="521.226" y1="76.926" x2="520.361" y2="100.284"/>
		<rect x="483.942" y="59.406" opacity="0.2" fill="#231F20" width="32.116" height="3.244"/>
		<rect x="488.803" y="47.097" fill="#E6E7E8" width="22.395" height="2.844"/>
		<rect x="461.511" y="100.283" fill="#E6E7E8" width="76.979" height="6.813"/>
		<polygon fill="#E6E7E8" points="554.385,114.881 445.615,114.881 447.562,107.096 552.438,107.096 		"/>
		<rect x="419.661" y="114.881" fill="#E6E7E8" width="160.678" height="8.434"/>
		<rect x="461.511" y="103.689" opacity="0.2" fill="#231F20" width="76.979" height="3.244"/>
		<polygon opacity="0.2" fill="#231F20" points="553.574,111.638 446.426,111.638 445.615,114.881 554.385,114.881 		"/>
		<g>
			<rect x="419.661" y="123.316" fill="#25648C" width="160.678" height="8.435"/>
			<polygon fill="#25648C" points="551.142,177.494 448.859,177.494 419.661,131.751 580.339,131.751 			"/>
			<g>
				<defs>
					<polygon id="SVGID_1_" points="419.661,123.316 419.661,131.751 448.859,177.494 551.142,177.494 580.339,131.751 
						580.339,123.316 					"/>
				</defs>
				<clipPath id="SVGID_2_">
					<use xlink:href="#SVGID_1_"  overflow="visible"/>
				</clipPath>
				<g clip-path="url(#SVGID_2_)">
					<g>
						
							<line fill="none" stroke="#231F20" stroke-width="0.9733" stroke-miterlimit="10" x1="427.006" y1="123.316" x2="427.006" y2="177.494"/>
						
							<line fill="none" stroke="#231F20" stroke-width="0.9733" stroke-miterlimit="10" x1="436.739" y1="123.316" x2="436.739" y2="177.494"/>
						
							<line fill="none" stroke="#231F20" stroke-width="0.9733" stroke-miterlimit="10" x1="446.471" y1="123.316" x2="446.471" y2="177.494"/>
						
							<line fill="none" stroke="#231F20" stroke-width="0.9733" stroke-miterlimit="10" x1="456.204" y1="123.316" x2="456.204" y2="177.494"/>
						
							<line fill="none" stroke="#231F20" stroke-width="0.9733" stroke-miterlimit="10" x1="465.936" y1="123.316" x2="465.936" y2="177.494"/>
						
							<line fill="none" stroke="#231F20" stroke-width="0.9733" stroke-miterlimit="10" x1="475.669" y1="123.316" x2="475.669" y2="177.494"/>
						
							<line fill="none" stroke="#231F20" stroke-width="0.9733" stroke-miterlimit="10" x1="485.401" y1="123.316" x2="485.401" y2="177.494"/>
						
							<line fill="none" stroke="#231F20" stroke-width="0.9733" stroke-miterlimit="10" x1="495.134" y1="123.316" x2="495.134" y2="177.494"/>
						
							<line fill="none" stroke="#231F20" stroke-width="0.9733" stroke-miterlimit="10" x1="504.866" y1="123.316" x2="504.866" y2="177.494"/>
						
							<line fill="none" stroke="#231F20" stroke-width="0.9733" stroke-miterlimit="10" x1="514.599" y1="123.316" x2="514.599" y2="177.494"/>
						
							<line fill="none" stroke="#231F20" stroke-width="0.9733" stroke-miterlimit="10" x1="524.331" y1="123.316" x2="524.331" y2="177.494"/>
						
							<line fill="none" stroke="#231F20" stroke-width="0.9733" stroke-miterlimit="10" x1="534.063" y1="123.316" x2="534.063" y2="177.494"/>
						
							<line fill="none" stroke="#231F20" stroke-width="0.9733" stroke-miterlimit="10" x1="543.796" y1="123.316" x2="543.796" y2="177.494"/>
						
							<line fill="none" stroke="#231F20" stroke-width="0.9733" stroke-miterlimit="10" x1="553.529" y1="123.316" x2="553.529" y2="177.494"/>
						
							<line fill="none" stroke="#231F20" stroke-width="0.9733" stroke-miterlimit="10" x1="563.262" y1="123.316" x2="563.262" y2="177.494"/>
						
							<line fill="none" stroke="#231F20" stroke-width="0.9733" stroke-miterlimit="10" x1="572.994" y1="123.316" x2="572.994" y2="177.494"/>
					</g>
					
						<line fill="none" stroke="#231F20" stroke-width="0.9733" stroke-miterlimit="10" x1="419.661" y1="141.483" x2="580.339" y2="141.483"/>
					
						<line fill="none" stroke="#231F20" stroke-width="0.9733" stroke-miterlimit="10" x1="419.661" y1="151.216" x2="580.339" y2="151.216"/>
					
						<line fill="none" stroke="#231F20" stroke-width="0.9733" stroke-miterlimit="10" x1="419.661" y1="160.948" x2="580.339" y2="160.948"/>
					
						<line fill="none" stroke="#231F20" stroke-width="0.9733" stroke-miterlimit="10" x1="419.661" y1="170.681" x2="580.339" y2="170.681"/>
				</g>
			</g>
		</g>
		<g opacity="0.4">
			<g>
				<rect x="501.946" y="123.316" fill="#231F20" width="3.894" height="54.177"/>
			</g>
			<g>
				<polygon fill="#231F20" points="476.274,177.765 469.829,131.751 469.829,123.316 473.722,123.316 473.722,131.615 
					480.129,177.223 				"/>
			</g>
			<g>
				<polygon fill="#231F20" points="460.399,178.093 445.498,132.058 445.498,123.316 449.391,123.316 449.391,131.444 
					464.103,176.894 				"/>
			</g>
			<g>
				<polygon fill="#231F20" points="531.512,177.765 527.657,177.223 534.063,131.615 534.063,123.316 537.957,123.316 
					537.938,132.021 				"/>
			</g>
			<g>
				<polygon fill="#231F20" points="550.307,178.093 546.603,176.894 561.314,131.444 561.314,123.316 565.208,123.316 
					565.208,132.058 				"/>
			</g>
			<g>
				<rect x="425.5" y="129.804" fill="#231F20" width="152.728" height="3.893"/>
			</g>
			<g>
				<polygon fill="#231F20" points="456.951,178.541 427.447,132.319 427.447,123.315 431.34,123.315 431.34,131.183 
					460.232,176.446 				"/>
			</g>
			<rect x="427.447" y="123.315" fill="#231F20" width="148.998" height="6.489"/>
			<polygon fill="#231F20" points="570.688,144.403 428.592,144.403 424.821,133.697 576.445,133.697 			"/>
		</g>
		<g>
			<g>
				<polygon fill="#BCBEC0" points="473.354,177.765 466.91,131.751 466.91,123.316 470.802,123.316 470.802,131.615 
					477.209,177.223 				"/>
			</g>
			<g>
				<polygon fill="#BCBEC0" points="453.058,178.541 423.554,132.319 423.554,123.315 427.447,123.315 427.447,131.183 
					456.34,176.446 				"/>
			</g>
			<g>
				<rect x="498.054" y="123.316" fill="#E6E7E8" width="3.893" height="54.177"/>
			</g>
			<g>
				<polygon fill="#E6E7E8" points="472.381,177.765 465.936,131.751 465.936,123.316 469.829,123.316 469.829,131.615 
					476.236,177.223 				"/>
			</g>
			<g>
				<polygon fill="#BCBEC0" points="456.627,178.093 441.727,132.058 441.727,123.316 445.62,123.316 445.62,131.444 
					460.332,176.894 				"/>
			</g>
			<g>
				<polygon fill="#E6E7E8" points="453.586,178.093 438.685,132.058 438.685,123.316 442.578,123.316 442.578,131.444 
					457.29,176.894 				"/>
			</g>
			<g>
				<polygon fill="#FFFFFF" points="526.646,177.765 522.791,177.223 529.197,131.615 529.197,123.316 533.091,123.316 
					533.071,132.021 				"/>
			</g>
			<g>
				<polygon fill="#FFFFFF" points="546.942,178.541 543.661,176.446 572.553,131.183 572.553,123.315 576.445,123.315 
					576.445,132.319 				"/>
			</g>
			<g>
				<polygon fill="#FFFFFF" points="543.494,178.093 539.79,176.894 554.502,131.444 554.502,123.316 558.395,123.316 
					558.395,132.058 				"/>
			</g>
			<g>
				<polygon fill="#E6E7E8" points="527.619,177.765 523.764,177.223 530.171,131.615 530.171,123.316 534.063,123.316 
					534.045,132.021 				"/>
			</g>
			<g>
				<polygon fill="#E6E7E8" points="546.414,178.093 542.71,176.894 557.422,131.444 557.422,123.316 561.314,123.316 
					561.314,132.058 				"/>
			</g>
			<g>
				<rect x="421.608" y="129.804" fill="#E6E7E8" width="156.785" height="3.893"/>
			</g>
			<g>
				<polygon fill="#E6E7E8" points="449.165,178.541 419.661,132.319 419.661,123.315 423.554,123.315 423.554,131.183 
					452.447,176.446 				"/>
			</g>
			<g>
				<polygon fill="#E6E7E8" points="550.835,178.541 547.555,176.446 576.445,131.183 576.445,123.315 580.339,123.315 
					580.339,132.319 				"/>
			</g>
		</g>
		<polygon fill="#E6E7E8" points="548.222,182.847 451.778,182.847 446.374,173.601 553.626,173.601 		"/>
		<polygon opacity="0.2" fill="#231F20" points="547.248,62.65 536.525,62.65 536.525,76.926 547.248,76.926 549.195,69.788 		"/>
		<rect x="521.226" y="62.65" opacity="0.1" fill="#231F20" width="15.3" height="14.276"/>
		<polygon opacity="0.3" fill="#FFFFFF" points="452.752,62.65 450.805,69.788 452.752,76.926 463.475,76.926 463.475,62.65 		"/>
		<rect x="463.475" y="62.65" opacity="0.2" fill="#FFFFFF" width="15.301" height="14.276"/>
		<polygon opacity="0.2" fill="#231F20" points="557.422,114.881 557.422,132.237 540.881,182.847 548.222,182.847 580.339,132.237 
			580.339,114.881 		"/>
		<polygon opacity="0.1" fill="#231F20" points="530.171,114.881 530.171,132.237 523.059,182.847 540.881,182.847 557.422,132.237 
			557.422,114.881 		"/>
		<polygon opacity="0.3" fill="#FFFFFF" points="442.578,114.881 442.578,132.237 459.119,182.847 451.778,182.847 419.661,132.237 
			419.661,114.881 		"/>
		<polygon opacity="0.2" fill="#FFFFFF" points="469.829,114.881 469.829,132.237 476.941,182.847 459.119,182.847 442.578,132.237 
			442.578,114.881 		"/>
		<rect x="476.941" y="182.847" fill="#E6E7E8" width="19.298" height="366.347"/>
		<rect x="504.061" y="182.847" fill="#D1D3D4" width="19.297" height="366.347"/>
		<rect x="496.239" y="182.847" fill="#25648C" width="7.821" height="366.347"/>
		<rect x="496.239" y="193.228" fill="#4B88AA" width="7.821" height="4.217"/>
		<rect x="496.239" y="207.827" fill="#4B88AA" width="7.821" height="4.217"/>
		<rect x="496.239" y="222.426" fill="#4B88AA" width="7.821" height="4.217"/>
		<rect x="496.239" y="237.024" fill="#4B88AA" width="7.821" height="4.217"/>
		<rect x="496.239" y="251.623" fill="#4B88AA" width="7.821" height="4.217"/>
		<rect x="496.239" y="266.222" fill="#4B88AA" width="7.821" height="4.217"/>
		<rect x="496.239" y="280.821" fill="#4B88AA" width="7.821" height="4.217"/>
		<rect x="496.239" y="295.419" fill="#4B88AA" width="7.821" height="4.218"/>
		<rect x="496.239" y="310.019" fill="#4B88AA" width="7.821" height="4.217"/>
		<rect x="496.239" y="324.617" fill="#4B88AA" width="7.821" height="4.217"/>
		<rect x="496.239" y="339.216" fill="#4B88AA" width="7.821" height="4.217"/>
		<rect x="496.239" y="353.814" fill="#4B88AA" width="7.821" height="4.217"/>
		<rect x="496.239" y="368.413" fill="#4B88AA" width="7.821" height="4.217"/>
		<rect x="496.239" y="383.012" fill="#4B88AA" width="7.821" height="4.218"/>
		<rect x="496.239" y="397.61" fill="#4B88AA" width="7.821" height="4.218"/>
		<rect x="496.239" y="412.209" fill="#4B88AA" width="7.821" height="4.218"/>
		<rect x="496.239" y="426.809" fill="#4B88AA" width="7.821" height="4.217"/>
		<rect x="496.239" y="441.407" fill="#4B88AA" width="7.821" height="4.217"/>
		<rect x="496.239" y="456.006" fill="#4B88AA" width="7.821" height="4.217"/>
		<rect x="496.239" y="470.604" fill="#4B88AA" width="7.821" height="4.217"/>
		<rect x="496.239" y="485.203" fill="#4B88AA" width="7.821" height="4.217"/>
		<rect x="496.239" y="499.802" fill="#4B88AA" width="7.821" height="4.218"/>
		<rect x="496.239" y="514.4" fill="#4B88AA" width="7.821" height="4.218"/>
		<rect x="496.239" y="529" fill="#4B88AA" width="7.821" height="4.217"/>
		<rect x="491.61" y="182.847" fill="#D1D3D4" width="4.629" height="366.347"/>
		<rect x="504.061" y="182.847" fill="#E6E7E8" width="4.627" height="366.347"/>
		<polygon opacity="0.2" fill="#231F20" points="523.357,223.723 508.688,219.754 491.61,219.754 476.941,223.723 476.941,182.847 
			523.357,182.847 		"/>
		<rect x="496.276" y="200.289" opacity="0.2" fill="#231F20" width="2.84" height="348.904"/>
	</g>
</g>
</svg>
