<?xml version="1.0" encoding="utf-8"?>
<!-- Generator: Adobe Illustrator 16.0.0, SVG Export Plug-In . SVG Version: 6.00 Build 0)  -->
<!DOCTYPE svg PUBLIC "-//W3C//DTD SVG 1.1//EN" "http://www.w3.org/Graphics/SVG/1.1/DTD/svg11.dtd">
<svg version="1.1" id="Layer_1" xmlns="http://www.w3.org/2000/svg" xmlns:xlink="http://www.w3.org/1999/xlink" x="0px" y="0px"
	 width="461.22px" height="149.535px" viewBox="0 0 461.22 149.535" enable-background="new 0 0 461.22 149.535"
	 xml:space="preserve">
<g>
	<defs>
		<rect id="SVGID_1_" width="461.22" height="149.535"/>
	</defs>
	<clipPath id="SVGID_2_">
		<use xlink:href="#SVGID_1_"  overflow="visible"/>
	</clipPath>
	<path clip-path="url(#SVGID_2_)" fill="#ED2079" d="M41.331,144.504c-10.34,0.005-19.793-4.221-26.558-11.001
		c-6.782-6.767-11.006-16.219-11.001-26.559h19.929c0.002,2.462,0.494,4.755,1.382,6.859c1.329,3.15,3.579,5.862,6.397,7.766
		c2.827,1.902,6.165,3.001,9.851,3.005V144.504z"/>
	<path clip-path="url(#SVGID_2_)" fill="#A02C64" d="M40.331,137.772v6.385c-10.341,0.005-19.793-4.22-26.558-11
		c-6.782-6.768-11.006-16.219-11.001-26.56h6.385c0,0.049-0.007,0.095-0.007,0.143c0,17.142,13.897,31.039,31.039,31.039
		C40.237,137.779,40.283,137.772,40.331,137.772"/>
</g>
<rect x="40.331" y="125.725" fill="#ED2079" width="411.472" height="19.843"/>
<rect x="4.041" y="4.708" fill="#ED2079" width="19.843" height="99.921"/>
<rect x="40.331" y="135.299" fill="#A02C64" width="411.472" height="10.269"/>
<rect x="4.041" y="4.708" fill="#A02C64" width="10.268" height="99.921"/>
<rect y="102.142" fill="#A02C64" width="27.779" height="9.418"/>
<g>
	<defs>
		<rect id="SVGID_3_" width="461.22" height="149.535"/>
	</defs>
	<clipPath id="SVGID_4_">
		<use xlink:href="#SVGID_3_"  overflow="visible"/>
	</clipPath>
	<path clip-path="url(#SVGID_4_)" fill="#ED2079" d="M22.677,106.952c0-0.978,0.793-1.771,1.772-1.771
		c0.978,0,1.771,0.794,1.771,1.771c0,0.979-0.793,1.772-1.771,1.772C23.47,108.725,22.677,107.931,22.677,106.952"/>
	<path clip-path="url(#SVGID_4_)" fill="#ED2079" d="M2.976,106.952c0-0.978,0.793-1.771,1.772-1.771
		c0.978,0,1.771,0.794,1.771,1.771c0,0.979-0.793,1.772-1.771,1.772C3.769,108.725,2.976,107.931,2.976,106.952"/>
</g>
<rect x="36.166" y="121.48" fill="#A02C64" width="9.417" height="27.778"/>
<g>
	<defs>
		<rect id="SVGID_5_" width="461.22" height="149.535"/>
	</defs>
	<clipPath id="SVGID_6_">
		<use xlink:href="#SVGID_5_"  overflow="visible"/>
	</clipPath>
	<path clip-path="url(#SVGID_6_)" fill="#ED2079" d="M40.771,144.157c0.978,0,1.772,0.793,1.772,1.771s-0.794,1.771-1.772,1.771
		c-0.978,0-1.772-0.793-1.772-1.771S39.794,144.157,40.771,144.157"/>
	<path clip-path="url(#SVGID_6_)" fill="#ED2079" d="M40.771,124.456c0.978,0,1.772,0.793,1.772,1.772
		c0,0.978-0.794,1.771-1.772,1.771c-0.978,0-1.772-0.793-1.772-1.771C39,125.249,39.794,124.456,40.771,124.456"/>
</g>
<rect x="451.804" y="121.48" fill="#A02C64" width="9.417" height="27.778"/>
<g>
	<defs>
		<rect id="SVGID_7_" width="461.22" height="149.535"/>
	</defs>
	<clipPath id="SVGID_8_">
		<use xlink:href="#SVGID_7_"  overflow="visible"/>
	</clipPath>
	<path clip-path="url(#SVGID_8_)" fill="#ED2079" d="M456.409,144.157c0.979,0,1.772,0.793,1.772,1.771s-0.794,1.771-1.772,1.771
		c-0.978,0-1.771-0.793-1.771-1.771S455.432,144.157,456.409,144.157"/>
	<path clip-path="url(#SVGID_8_)" fill="#ED2079" d="M456.409,124.456c0.979,0,1.772,0.793,1.772,1.772
		c0,0.978-0.794,1.771-1.772,1.771c-0.978,0-1.771-0.793-1.771-1.771C454.638,125.249,455.432,124.456,456.409,124.456"/>
</g>
<rect x="219.842" y="121.756" fill="#A02C64" width="9.418" height="27.779"/>
<g>
	<defs>
		<rect id="SVGID_9_" width="461.22" height="149.535"/>
	</defs>
	<clipPath id="SVGID_10_">
		<use xlink:href="#SVGID_9_"  overflow="visible"/>
	</clipPath>
	<path clip-path="url(#SVGID_10_)" fill="#ED2079" d="M224.653,144.433c-0.978,0-1.771,0.793-1.771,1.772
		c0,0.978,0.794,1.771,1.771,1.771c0.979,0,1.772-0.793,1.772-1.771C226.426,145.226,225.632,144.433,224.653,144.433"/>
	<path clip-path="url(#SVGID_10_)" fill="#ED2079" d="M224.653,124.732c-0.978,0-1.771,0.793-1.771,1.771s0.794,1.771,1.771,1.771
		c0.979,0,1.772-0.793,1.772-1.771S225.632,124.732,224.653,124.732"/>
</g>
<rect x="0.553" fill="#A02C64" width="27.779" height="9.417"/>
<g>
	<defs>
		<rect id="SVGID_11_" width="461.22" height="149.535"/>
	</defs>
	<clipPath id="SVGID_12_">
		<use xlink:href="#SVGID_11_"  overflow="visible"/>
	</clipPath>
	<path clip-path="url(#SVGID_12_)" fill="#ED2079" d="M23.23,4.606c0,0.978,0.793,1.772,1.772,1.772
		c0.978,0,1.771-0.794,1.771-1.772s-0.793-1.772-1.771-1.772C24.023,2.834,23.23,3.628,23.23,4.606"/>
	<path clip-path="url(#SVGID_12_)" fill="#ED2079" d="M3.529,4.606c0,0.978,0.793,1.772,1.772,1.772
		c0.978,0,1.771-0.794,1.771-1.772S6.279,2.834,5.301,2.834C4.322,2.834,3.529,3.628,3.529,4.606"/>
</g>
</svg>
