<?xml version="1.0" encoding="utf-8"?>
<!-- Generator: Adobe Illustrator 19.2.0, SVG Export Plug-In . SVG Version: 6.00 Build 0)  -->
<svg version="1.1" id="Layer_1" xmlns="http://www.w3.org/2000/svg" xmlns:xlink="http://www.w3.org/1999/xlink" x="0px" y="0px"
	 viewBox="0 0 1600 80" style="enable-background:new 0 0 1600 80;" xml:space="preserve">
<style type="text/css">
	.st0{fill:#4C4C4C;}
	.st1{fill:#FFFFFF;}
</style>
<g>
	<rect x="-0.4" class="st0" width="1600" height="80"/>
</g>
<g>
	<g>
		<rect x="-0.4" y="39.5" class="st1" width="10" height="1"/>
	</g>
	<g>
		<path class="st1" d="M1569.6,40.5h-20v-1h20V40.5z M1529.6,40.5h-20v-1h20V40.5z M1489.6,40.5h-20v-1h20V40.5z M1449.6,40.5h-20
			v-1h20V40.5z M1409.6,40.5h-20v-1h20V40.5z M1369.6,40.5h-20v-1h20V40.5z M1329.6,40.5h-20v-1h20V40.5z M1289.6,40.5h-20v-1h20
			V40.5z M1249.6,40.5h-20v-1h20V40.5z M1209.6,40.5h-20v-1h20V40.5z M1169.6,40.5h-20v-1h20V40.5z M1129.6,40.5h-20v-1h20V40.5z
			 M1089.6,40.5h-20v-1h20V40.5z M1049.6,40.5h-20v-1h20V40.5z M1009.6,40.5h-20v-1h20V40.5z M969.6,40.5h-20v-1h20V40.5z
			 M929.6,40.5h-20v-1h20V40.5z M889.6,40.5h-20v-1h20V40.5z M849.6,40.5h-20v-1h20V40.5z M809.6,40.5h-20v-1h20V40.5z M769.6,40.5
			h-20v-1h20V40.5z M729.6,40.5h-20v-1h20V40.5z M689.6,40.5h-20v-1h20V40.5z M649.6,40.5h-20v-1h20V40.5z M609.6,40.5h-20v-1h20
			V40.5z M569.6,40.5h-20v-1h20V40.5z M529.6,40.5h-20v-1h20V40.5z M489.6,40.5h-20v-1h20V40.5z M449.6,40.5h-20v-1h20V40.5z
			 M409.6,40.5h-20v-1h20V40.5z M369.6,40.5h-20v-1h20V40.5z M329.6,40.5h-20v-1h20V40.5z M289.6,40.5h-20v-1h20V40.5z M249.6,40.5
			h-20v-1h20V40.5z M209.6,40.5h-20v-1h20V40.5z M169.6,40.5h-20v-1h20V40.5z M129.6,40.5h-20v-1h20V40.5z M89.6,40.5h-20v-1h20
			V40.5z M49.6,40.5h-20v-1h20V40.5z"/>
	</g>
	<g>
		<rect x="1589.6" y="39.5" class="st1" width="10" height="1"/>
	</g>
</g>
</svg>
