<?xml version="1.0" encoding="utf-8"?>
<!-- Generator: Adobe Illustrator 16.0.0, SVG Export Plug-In . SVG Version: 6.00 Build 0)  -->
<!DOCTYPE svg PUBLIC "-//W3C//DTD SVG 1.1//EN" "http://www.w3.org/Graphics/SVG/1.1/DTD/svg11.dtd">
<svg version="1.1" id="Layer_1" xmlns="http://www.w3.org/2000/svg" xmlns:xlink="http://www.w3.org/1999/xlink" x="0px" y="0px"
	 width="650px" height="350.667px" viewBox="-111.5 -29.5 650 350.667" enable-background="new -111.5 -29.5 650 350.667"
	 xml:space="preserve">
<text transform="matrix(1 0 0 1 60.4365 286.0996)" font-family="'ArialMT'" font-size="10">50</text>
<text transform="matrix(1 0 0 1 108.1797 286.0996)" font-family="'ArialMT'" font-size="10">55</text>
<text transform="matrix(1 0 0 1 155.9229 286.0996)" font-family="'ArialMT'" font-size="10">60</text>
<text transform="matrix(1 0 0 1 203.666 286.0996)" font-family="'ArialMT'" font-size="10">65</text>
<text transform="matrix(1 0 0 1 251.4092 286.0996)" font-family="'ArialMT'" font-size="10">70</text>
<text transform="matrix(1 0 0 1 299.1523 286.0996)" font-family="'ArialMT'" font-size="10">75</text>
<text transform="matrix(1 0 0 1 346.8945 286.0996)" font-family="'ArialMT'" font-size="10">80</text>
<text transform="matrix(1 0 0 1 394.6387 286.0996)" font-family="'ArialMT'" font-size="10">85</text>
<text transform="matrix(1 0 0 1 442.3809 286.0996)" font-family="'ArialMT'" font-size="10">90</text>
<text transform="matrix(1 0 0 1 -7.4561 243.4229)" font-family="'ArialMT'" font-size="10">35</text>
<text transform="matrix(1 0 0 1 -7.4561 224.9043)" font-family="'ArialMT'" font-size="10">40</text>
<text transform="matrix(1 0 0 1 -7.4561 206.3857)" font-family="'ArialMT'" font-size="10">45</text>
<text transform="matrix(1 0 0 1 -7.4561 187.8672)" font-family="'ArialMT'" font-size="10">50</text>
<text transform="matrix(1 0 0 1 -7.4561 169.3486)" font-family="'ArialMT'" font-size="10">55</text>
<text transform="matrix(1 0 0 1 -7.4561 150.8301)" font-family="'ArialMT'" font-size="10">60</text>
<text transform="matrix(1 0 0 1 -7.4561 132.3115)" font-family="'ArialMT'" font-size="10">65</text>
<text transform="matrix(1 0 0 1 -7.4561 113.793)" font-family="'ArialMT'" font-size="10">70</text>
<text transform="matrix(1 0 0 1 -7.4561 95.2744)" font-family="'ArialMT'" font-size="10">75</text>
<text transform="matrix(1 0 0 1 -7.4561 76.7559)" font-family="'ArialMT'" font-size="10">80</text>
<text transform="matrix(1 0 0 1 -7.4561 58.2373)" font-family="'ArialMT'" font-size="10">85</text>
<text transform="matrix(1 0 0 1 -7.4561 39.7188)" font-family="'ArialMT'" font-size="10">90</text>
<circle fill="#D1BA8C" fill-opacity="0.9" cx="319.991" cy="30" r="30"/>
<g enable-background="new    ">
	<image overflow="visible" width="70" height="19" xlink:href="38165EB746C21B7.png"  transform="matrix(1 0 0 1 353.5 19.5)">
	</image>
	<g>
		<text transform="matrix(1 0 0 1 356.9062 31.6665)" font-family="'Arial-BoldMT'" font-size="10">Atlanta (ATL)</text>
	</g>
</g>
<circle fill="#FF8383" fill-opacity="0.9" cx="32" cy="126.37" r="23.027"/>
<g enable-background="new    ">
	<image overflow="visible" width="70" height="19" xlink:href="38165EB746C21B5.png"  transform="matrix(1 0 0 1 59.5 116.5)">
	</image>
	<g>
		<text transform="matrix(1 0 0 1 62.9326 128.7041)" font-family="'Arial-BoldMT'" font-size="10">Beijing (PEX)</text>
	</g>
</g>
<circle fill="#D1BA8C" fill-opacity="0.9" cx="319.991" cy="217.407" r="17.069"/>
<g enable-background="new    ">
	<image overflow="visible" width="77" height="19" xlink:href="38165EB746C21BB.png"  transform="matrix(1 0 0 1 282.5 182.5)">
	</image>
	<g>
		<text transform="matrix(1 0 0 1 286.1025 194.4072)" font-family="'Arial-BoldMT'" font-size="10">London (LGW)</text>
	</g>
</g>
<circle fill="#77EC97" fill-opacity="0.9" cx="409.176" cy="222.592" r="22.233"/>
<g enable-background="new    ">
	<image overflow="visible" width="74" height="19" xlink:href="38165EB746C21BD.png"  transform="matrix(1 0 0 1 369.5 182.5)">
	</image>
	<g>
		<text transform="matrix(1 0 0 1 373.4355 194.2588)" font-family="'Arial-BoldMT'" font-size="10">London (LHR)</text>
	</g>
</g>
<circle fill="#DDAF8A" fill-opacity="0.9" cx="292.014" cy="98.519" r="21.124"/>
<g enable-background="new    ">
	<image overflow="visible" width="81" height="19" xlink:href="38165EB746C21BF.png"  transform="matrix(1 0 0 1 315.5 90.5)">
	</image>
	<g>
		<text transform="matrix(1 0 0 1 319.2822 102.1851)" font-family="'Arial-BoldMT'" font-size="10">New York (JFK)</text>
	</g>
</g>
<circle fill="#6BF098" fill-opacity="0.9" cx="470" cy="250" r="21.371"/>
<g enable-background="new    ">
	<image overflow="visible" width="67" height="19" xlink:href="38165EB746C21BC.png"  transform="matrix(1 0 0 1 437.5 209.5)">
	</image>
	<g>
		<text transform="matrix(1 0 0 1 440.7197 221.667)" font-family="'Arial-BoldMT'" font-size="10">Tokyo (HND)</text>
	</g>
</g>
<g>
	<circle cx="0" cy="0" r="0"/>
</g>
<g>
	<circle cx="0" cy="0" r="0"/>
</g>
<g>
	<circle cx="0" cy="0" r="0"/>
</g>
<g>
	<circle cx="0" cy="0" r="0"/>
</g>
<g>
	<circle cx="0" cy="0" r="0"/>
</g>
<g>
	<circle cx="0" cy="0" r="0"/>
</g>
<g enable-background="new    ">
	<image overflow="visible" width="97" height="19" xlink:href="38165EB746C21B4.png"  transform="matrix(1 0 0 1 192.5 296.5)">
	</image>
	<g>
		<text transform="matrix(1 0 0 1 196.2661 308.7051)" font-family="'Arial-BoldMT'" font-size="10">Flights on-time (%)</text>
	</g>
</g>
<g enable-background="new    ">
	<image overflow="visible" width="20" height="102" xlink:href="38165EB746C21B6.png"  transform="matrix(1 0 0 1 -49.5 81.5)">
	</image>
	<g>
		<text transform="matrix(-4.371139e-08 -1 1 -4.371139e-08 -36.9951 179.6289)" font-family="'Arial-BoldMT'" font-size="10">Average delay (min)</text>
	</g>
</g>
<text transform="matrix(1 0 0 1 -7.1226 262.4238)" font-family="'ArialMT'" font-size="10">30</text>
<text transform="matrix(1 0 0 1 19.1035 286.0996)" font-family="'ArialMT'" font-size="10">45</text>
</svg>
